<svg width="37" height="37" viewBox="0 0 37 37" fill="none" xmlns="http://www.w3.org/2000/svg">
<path d="M4 33.0001H11.7333V13.6667H4V33.0001ZM6.57778 16.4026H9.15556V30.2642H6.57778V16.4026Z" fill="white"/>
<path d="M24.722 13.6667C24.7195 13.6667 24.7166 13.6667 24.7141 13.6667C23.7593 13.6667 22.8293 13.8249 21.9522 14.132V13.6667H13.6665V33.0001H21.9522V23.2422C21.9522 22.4881 22.5718 21.8743 23.3332 21.8743C24.0945 21.8743 24.7141 22.4881 24.7141 23.2422V33.0001H32.9998V22.3018C32.9998 17.8745 29.3741 13.671 24.722 13.6667ZM30.2379 30.2642H27.476V23.2422C27.476 20.9794 25.6175 19.1384 23.3332 19.1384C21.0488 19.1384 19.1907 20.9794 19.1903 23.2419V30.2642H16.4284V16.4026H19.1903V19.1402L21.4006 17.4959C22.3618 16.7806 23.5076 16.4026 24.7141 16.4026H24.7195C27.6591 16.4054 30.2379 19.162 30.2379 22.3018V30.2642Z" fill="white"/>
<path d="M4 11.7333H11.7333V4H4V11.7333ZM6.57778 6.57778H9.15556V9.15556H6.57778V6.57778Z" fill="white"/>
<rect x="1" y="1" width="35" height="35" stroke="white" stroke-width="2"/>
</svg>
