<svg width="35" height="35" viewBox="0 0 35 35" fill="none" xmlns="http://www.w3.org/2000/svg">
<g clip-path="url(#clip0)">
<path d="M4.45196 0.827541C4.41378 0.923018 4.44982 0.519104 4.44982 0.519104V0.788075C4.44982 1.28932 4.30255 1.78055 4.18085 2.2674C3.83417 3.65416 3.52964 5.04847 3.19463 6.43642C3.03234 7.10872 2.7842 7.77359 2.65669 8.45367C2.64075 8.5387 2.52222 9.40776 2.52222 9.21575" stroke="white" stroke-width="0.55" stroke-miterlimit="1.5" stroke-linecap="round" stroke-linejoin="round" class="greeting-1"></path>
<path d="M1.06653 7.1186C1.69214 6.81239 2.26275 6.42474 2.92474 6.1673C4.38797 5.59826 6.00353 5.41 7.49721 4.91211" stroke="white" stroke-width="0.55" stroke-miterlimit="1.5" stroke-linecap="round" stroke-linejoin="round" class="greeting-2"></path>
<path d="M7.21652 0.310062C7.21757 0.308656 7.15095 0.69422 7.04898 1.28056C6.93297 1.94758 6.74141 2.60357 6.55587 3.253C5.95905 5.34187 5.07654 7.69068 5.07654 9.88754" stroke="white" stroke-width="0.55" stroke-miterlimit="1.5" stroke-linecap="round" stroke-linejoin="round" class="greeting-3"></path>
<path d="M9.3117 5.91982C9.19801 5.80302 8.91004 6.96151 8.89112 7.02837C8.65614 7.85921 8.30835 8.70332 8.30835 9.57267" stroke="white" stroke-width="0.55" stroke-miterlimit="1.5" stroke-linecap="round" stroke-linejoin="round" class="greeting-4"></path>
<path d="M9.4928 3.79884C9.37802 3.89216 9.38575 3.26408 9.33754 3.39862C9.21565 3.73886 9.57195 3.93479 9.65135 3.56546C9.68373 3.4147 9.67436 3.29377 9.51685 3.44034" stroke="white" stroke-width="0.55" stroke-miterlimit="1.5" stroke-linecap="round" stroke-linejoin="round" class="greeting-5"></path>
<path d="M10.7591 10.6685C10.8133 10.6242 11.125 9.81496 10.9534 9.65522C10.7591 9.47446 10.4795 9.78037 10.7741 9.78037" stroke="white" stroke-width="0.55" stroke-miterlimit="1.5" stroke-linecap="round" stroke-linejoin="round" class="greeting-6"></path>
<path d="M4.07427 17.5365C4.14136 17.4429 4.04385 17.2459 4.13529 17.1544C4.21024 17.0795 4.19922 17.3649 4.18026 17.4691C4.0666 18.0942 3.88931 18.7427 3.73065 19.3575C3.40093 20.6352 2.97778 21.8797 2.74153 23.1791C2.67776 23.5298 2.38184 25.0524 2.38184 24.9326" stroke="white" stroke-width="0.55" stroke-miterlimit="1.5" stroke-linecap="round" stroke-linejoin="round" class="greeting-7"></path>
<path d="M2.43067 17.3164C2.42404 17.3434 8.05375 16.9742 6.20306 16.9742" stroke="white" stroke-width="0.55" stroke-miterlimit="1.5" stroke-linecap="round" stroke-linejoin="round" class="greeting-8"></path>
<path d="M0.668817 25.3347C0.807931 25.3944 0.224243 25.4268 0.224243 25.4268C0.224243 25.4268 0.579856 25.293 0.763756 25.247C1.82863 24.9808 2.85401 24.7974 3.95595 24.7974" stroke="white" stroke-width="0.55" stroke-miterlimit="1.5" stroke-linecap="round" stroke-linejoin="round" class="greeting-9"></path>
<path d="M5.994 20.293C6.06013 20.4908 5.6281 21.2374 5.4397 21.4628" stroke="white" stroke-width="0.55" stroke-miterlimit="1.5" stroke-linecap="round" stroke-linejoin="round" class="greeting-10"></path>
<path d="M7.12779 22.0914C7.19693 22.0742 7.11265 21.8025 7.14443 21.869C7.41373 22.4326 7.12193 23.3273 6.988 23.888C6.91302 24.2018 6.77942 24.7972 6.77942 24.652C6.77942 23.8373 7.50105 22.7509 8.03088 22.1964C8.10255 22.1214 8.24628 21.9378 8.2916 22.0327C8.47011 22.4063 7.93442 24.0286 8.2916 24.2155C8.59568 24.3746 9.07379 22.4283 9.75167 22.251C10.2349 22.1245 10.0645 23.2924 10.0645 23.5606V24.652" stroke="white" stroke-width="0.55" stroke-miterlimit="1.5" stroke-linecap="round" stroke-linejoin="round" class="greeting-11"></path>
<path d="M17.1458 18.1903C17.1453 18.2175 15.6675 24.8093 15.2572 25.2196" stroke="white" stroke-width="0.55" stroke-miterlimit="1.5" stroke-linecap="round" stroke-linejoin="round" class="greeting-12"></path>
<path d="M17.5164 17C17.4984 16.986 17.512 16.9852 17.5955 16.9017C17.6931 16.804 17.8158 16.7264 17.9102 16.6319C19.2735 15.2686 20.8271 14.2237 22.7659 15.1932C23.193 15.4067 23.6908 15.8031 23.7551 16.3172C23.9961 18.2454 21.1385 20.8601 19.7536 21.9372C19.2829 22.3033 18.559 22.5923 18.18 22.9713C18.108 23.0433 18.4251 23.2042 18.4498 23.2411C18.9637 24.012 19.5976 24.7417 20.1582 25.4891C22.3651 28.4317 24.4748 31.4544 26.6775 34.3913" stroke="white" stroke-width="0.55" stroke-miterlimit="1.5" stroke-linecap="round" stroke-linejoin="round" class="greeting-13"></path>
<path d="M24.034 23.6891C24.2644 23.6202 24.4796 23.5468 24.6368 23.4633C25.0299 23.2544 25.329 23.0621 25.5541 22.7919C26.4333 21.737 24.8091 21.5642 24.1154 21.9377C22.2784 22.9268 22.0317 25.4446 24.565 25.4446" stroke="white" stroke-width="0.55" stroke-miterlimit="1.5" stroke-linecap="round" stroke-linejoin="round" class="greeting-14"></path>
<path d="M28.4337 19.9679C28.8001 19.5995 31.5875 18.4844 30.8849 19.9C30.546 20.5828 29.9655 21.1273 29.4663 21.6551C28.5407 22.6336 27.6181 23.7514 26.9526 24.9703C25.7979 27.0856 27.044 27.5327 28.8441 27.2548C29.3692 27.1737 29.9111 26.9959 30.412 26.809" stroke="white" stroke-width="0.55" stroke-miterlimit="1.5" stroke-linecap="round" stroke-linejoin="round" class="greeting-15"></path>
<path d="M33.7116 22.7104C33.6037 22.5779 33.5893 22.3975 33.4868 22.2608C32.6623 21.1615 30.1835 23.7992 30.7442 24.7336C31.0656 25.2694 31.7282 25.0409 32.1379 24.7336C32.7246 24.2937 33.0918 23.6175 33.4868 23.0251C33.5583 22.9178 33.7116 22.7104 33.7116 22.7104ZM33.7116 22.7104C33.7116 22.7104 33.6472 22.8586 33.6216 22.9352C33.3582 23.7257 32.8061 25.0243 33.9813 25.3181" stroke="white" stroke-width="0.55" stroke-miterlimit="1.5" stroke-linecap="round" stroke-linejoin="round" class="greeting-16"></path>
</g>
<defs>
<clipPath id="clip0">
<rect width="35" height="35" fill="white" class="greeting-17"></rect>
</clipPath>
</defs>
</svg>
